<svg id="Layer_1" data-name="Layer 1" xmlns="http://www.w3.org/2000/svg" viewBox="0 0 212.56 39.12"><defs><style>.cls-1{fill:#7ab1df;}</style></defs><title>maulbotSite</title><path class="cls-1" d="M150.78,425l2-17.16.36-1.8L143,425H136.5l-4.86-19-.18,1.5L128.64,425H117.48l6.6-36.6h12.36l4.68,17.34a23.26,23.26,0,0,1,.66,3.18c.48-1.14.9-2,1.5-3.18l9.78-17.34h12.48l-3.6,36.6Z" transform="translate(-117.48 -386.43)"/><path class="cls-1" d="M192.82,425H182l.3-2.46c-2.7,2-4.5,3-8.28,3-6.3,0-11.16-4.86-9.6-15.9,1.44-10.2,6-14.4,12.42-14.4a13.85,13.85,0,0,1,8.88,3.12l.36-2.58H196.9Zm-8.28-18.72a5.64,5.64,0,0,0-4.14-1.92c-2.88,0-4.8,2-5.34,6.12-.66,4.44.42,6.06,2.94,6.06,2.16,0,3.6-.84,5.4-2.22Z" transform="translate(-117.48 -386.43)"/><path class="cls-1" d="M223.27,424.8H212.41l.36-2.76c-3.72,2.22-6.12,3.3-9,3.3-6.3,0-9.42-3.54-8.34-11.46l2.58-18.3h10.86l-2.22,16c-.42,2.76-.06,3.78,1.74,3.78s3.72-1.08,5.7-2.46l2.4-17.34h10.86Z" transform="translate(-117.48 -386.43)"/><path class="cls-1" d="M235.08,425H224.22l5.46-38.58h10.86Z" transform="translate(-117.48 -386.43)"/><path class="cls-1" d="M262.9,388.14c8.94,0,12.9,3.78,12.42,10a8.2,8.2,0,0,1-5.28,7.56c3.9,1.2,5.7,4.08,5.34,8.16-.42,8-6,10.86-17.52,10.86H241.54l5.16-36.6Zm-4.44,27.78c3.78,0,5.52-1.2,5.76-3.54.12-1.92-1-2.76-3.72-2.76h-5.64l-.9,6.3Zm1.32-13.44c2.88,0,4.74-1,4.86-3.06.12-1.62-.78-2.46-3.3-2.46H256.6l-.72,5.52Z" transform="translate(-117.48 -386.43)"/><path class="cls-1" d="M306.6,410.46c-1.32,9.78-7.5,14.82-17.16,14.82-10.2,0-14.82-5.58-13.44-15.3,1.38-10,7.56-15,17.1-15C303.36,395,308,400.56,306.6,410.46ZM296,409.8c.6-4.62-.72-6.3-3.6-6.3-3.24,0-5.34,2.28-6,7.08-.66,4.5.66,6.18,3.54,6.18C293.28,416.76,295.38,414.48,296,409.8Z" transform="translate(-117.48 -386.43)"/><path class="cls-1" d="M320.74,413.28c-.3,2.16-.06,3.24,2.58,3.24,1.38,0,2.4,0,3.78-.06l.6,6.72a19.86,19.86,0,0,1-9.24,2c-7.14,0-9.78-3.66-8.64-12l1.26-8.7h-4l1.26-9h4l.9-6.18H324.1l-.9,6.18H330l-1.26,9h-6.84Z" transform="translate(-117.48 -386.43)"/></svg>